<mxfile host="app.diagrams.net" modified="2023-03-31T07:23:16.095Z" agent="Mozilla/5.0 (Windows NT 10.0; Win64; x64) AppleWebKit/537.36 (KHTML, like Gecko) Chrome/111.0.0.0 Safari/537.36" etag="EWjLitwdtv0zCUPBadiQ" version="21.1.0" type="device">
  <diagram name="Page-1" id="03018318-947c-dd8e-b7a3-06fadd420f32">
    <mxGraphModel dx="3000" dy="1817" grid="1" gridSize="10" guides="1" tooltips="1" connect="1" arrows="1" fold="1" page="1" pageScale="1" pageWidth="1100" pageHeight="850" background="none" math="0" shadow="0">
      <root>
        <mxCell id="0" />
        <mxCell id="1" parent="0" />
        <mxCell id="677b7b8949515195-1" value="" style="whiteSpace=wrap;html=1;rounded=0;shadow=0;labelBackgroundColor=none;strokeColor=#000000;strokeWidth=1;fillColor=none;fontFamily=Verdana;fontSize=12;fontColor=#000000;align=center;comic=1;" parent="1" vertex="1">
          <mxGeometry x="20" y="20" width="1060" height="810" as="geometry" />
        </mxCell>
        <mxCell id="677b7b8949515195-2" value="LOGO" style="whiteSpace=wrap;html=1;rounded=0;shadow=0;labelBackgroundColor=none;strokeWidth=1;fontFamily=Verdana;fontSize=28;align=center;comic=1;" parent="1" vertex="1">
          <mxGeometry x="50" y="40" width="170" height="80" as="geometry" />
        </mxCell>
        <mxCell id="677b7b8949515195-9" value="" style="line;strokeWidth=1;html=1;rounded=0;shadow=0;labelBackgroundColor=none;fillColor=none;fontFamily=Verdana;fontSize=14;fontColor=#000000;align=center;comic=1;" parent="1" vertex="1">
          <mxGeometry x="20" y="140" width="1060" height="10" as="geometry" />
        </mxCell>
        <mxCell id="677b7b8949515195-10" value="" style="whiteSpace=wrap;html=1;rounded=0;shadow=0;labelBackgroundColor=none;strokeWidth=1;fillColor=none;fontFamily=Verdana;fontSize=12;align=center;comic=1;" parent="1" vertex="1">
          <mxGeometry x="320" y="60" width="480" height="50" as="geometry" />
        </mxCell>
        <mxCell id="677b7b8949515195-11" value="Home" style="text;html=1;points=[];align=left;verticalAlign=top;spacingTop=-4;fontSize=14;fontFamily=Verdana" parent="1" vertex="1">
          <mxGeometry x="340" y="75" width="60" height="20" as="geometry" />
        </mxCell>
        <mxCell id="677b7b8949515195-12" value="Categories" style="text;html=1;points=[];align=left;verticalAlign=top;spacingTop=-4;fontSize=14;fontFamily=Verdana" parent="1" vertex="1">
          <mxGeometry x="460" y="75" width="83" height="20" as="geometry" />
        </mxCell>
        <mxCell id="677b7b8949515195-13" value="Map" style="text;html=1;points=[];align=left;verticalAlign=top;spacingTop=-4;fontSize=14;fontFamily=Verdana" parent="1" vertex="1">
          <mxGeometry x="613" y="75" width="60" height="20" as="geometry" />
        </mxCell>
        <mxCell id="677b7b8949515195-14" value="About" style="text;html=1;points=[];align=left;verticalAlign=top;spacingTop=-4;fontSize=14;fontFamily=Verdana" parent="1" vertex="1">
          <mxGeometry x="710" y="75" width="60" height="20" as="geometry" />
        </mxCell>
        <mxCell id="bMaYph6oGsOZrke5uiHA-1" value="" style="endArrow=none;html=1;rounded=0;exitX=-0.003;exitY=0.91;exitDx=0;exitDy=0;exitPerimeter=0;entryX=0.999;entryY=0.916;entryDx=0;entryDy=0;entryPerimeter=0;shadow=0;jumpStyle=none;" parent="1" edge="1">
          <mxGeometry width="50" height="50" relative="1" as="geometry">
            <mxPoint x="17" y="757" as="sourcePoint" />
            <mxPoint x="1079" y="762" as="targetPoint" />
          </mxGeometry>
        </mxCell>
        <mxCell id="-DxL88ty111LmhIxg9Tt-1" value="" style="whiteSpace=wrap;html=1;rounded=0;shadow=0;labelBackgroundColor=none;strokeWidth=1;fillColor=none;fontFamily=Verdana;fontSize=12;align=center;comic=1;" parent="1" vertex="1">
          <mxGeometry x="80" y="170" width="480" height="270" as="geometry" />
        </mxCell>
        <mxCell id="FBrXwyyZPFvSrBjoVii--3" value="" style="whiteSpace=wrap;html=1;rounded=0;shadow=0;labelBackgroundColor=none;strokeWidth=1;fillColor=none;fontFamily=Verdana;fontSize=12;align=center;comic=1;" parent="1" vertex="1">
          <mxGeometry x="80" y="480" width="960" height="250" as="geometry" />
        </mxCell>
        <mxCell id="FBrXwyyZPFvSrBjoVii--4" value="Location" style="swimlane;whiteSpace=wrap;html=1;" parent="1" vertex="1">
          <mxGeometry x="600" y="170" width="440" height="270" as="geometry">
            <mxRectangle x="600" y="170" width="90" height="30" as="alternateBounds" />
          </mxGeometry>
        </mxCell>
        <mxCell id="hxOayeQcrygGlUBCVPRv-1" value="Google maps" style="text;html=1;strokeColor=none;fillColor=none;align=center;verticalAlign=middle;whiteSpace=wrap;rounded=0;" parent="FBrXwyyZPFvSrBjoVii--4" vertex="1">
          <mxGeometry x="190" y="120" width="60" height="30" as="geometry" />
        </mxCell>
        <mxCell id="hxOayeQcrygGlUBCVPRv-2" value="Address&lt;br&gt;Contact" style="text;html=1;strokeColor=none;fillColor=none;align=center;verticalAlign=middle;whiteSpace=wrap;rounded=0;" parent="1" vertex="1">
          <mxGeometry x="120" y="200" width="100" height="50" as="geometry" />
        </mxCell>
        <mxCell id="hxOayeQcrygGlUBCVPRv-3" value="About the zoo&lt;br&gt;What kind of animals&lt;br&gt;Other information&lt;br&gt;Ã–ffnungszeiten" style="text;html=1;strokeColor=none;fillColor=none;align=center;verticalAlign=middle;whiteSpace=wrap;rounded=0;" parent="1" vertex="1">
          <mxGeometry x="120" y="520" width="240" height="70" as="geometry" />
        </mxCell>
        <mxCell id="Pdm3WJ6kf0bDeH4MtH8x-1" value="" style="whiteSpace=wrap;html=1;rounded=0;shadow=0;labelBackgroundColor=none;strokeColor=#000000;strokeWidth=1;fillColor=none;fontFamily=Verdana;fontSize=12;fontColor=#000000;align=center;comic=1;" parent="1" vertex="1">
          <mxGeometry x="1153" y="20" width="1060" height="810" as="geometry" />
        </mxCell>
        <mxCell id="Pdm3WJ6kf0bDeH4MtH8x-2" value="LOGO" style="whiteSpace=wrap;html=1;rounded=0;shadow=0;labelBackgroundColor=none;strokeWidth=1;fontFamily=Verdana;fontSize=28;align=center;comic=1;" parent="1" vertex="1">
          <mxGeometry x="1183" y="40" width="170" height="80" as="geometry" />
        </mxCell>
        <mxCell id="Pdm3WJ6kf0bDeH4MtH8x-3" value="" style="line;strokeWidth=1;html=1;rounded=0;shadow=0;labelBackgroundColor=none;fillColor=none;fontFamily=Verdana;fontSize=14;fontColor=#000000;align=center;comic=1;" parent="1" vertex="1">
          <mxGeometry x="1153" y="140" width="1060" height="10" as="geometry" />
        </mxCell>
        <mxCell id="Pdm3WJ6kf0bDeH4MtH8x-4" value="" style="whiteSpace=wrap;html=1;rounded=0;shadow=0;labelBackgroundColor=none;strokeWidth=1;fillColor=none;fontFamily=Verdana;fontSize=12;align=center;comic=1;" parent="1" vertex="1">
          <mxGeometry x="1453" y="60" width="480" height="50" as="geometry" />
        </mxCell>
        <mxCell id="Pdm3WJ6kf0bDeH4MtH8x-5" value="Home" style="text;html=1;points=[];align=left;verticalAlign=top;spacingTop=-4;fontSize=14;fontFamily=Verdana" parent="1" vertex="1">
          <mxGeometry x="1473" y="75" width="60" height="20" as="geometry" />
        </mxCell>
        <mxCell id="Pdm3WJ6kf0bDeH4MtH8x-6" value="Categories" style="text;html=1;points=[];align=left;verticalAlign=top;spacingTop=-4;fontSize=14;fontFamily=Verdana" parent="1" vertex="1">
          <mxGeometry x="1593" y="75" width="83" height="20" as="geometry" />
        </mxCell>
        <mxCell id="Pdm3WJ6kf0bDeH4MtH8x-7" value="Map" style="text;html=1;points=[];align=left;verticalAlign=top;spacingTop=-4;fontSize=14;fontFamily=Verdana" parent="1" vertex="1">
          <mxGeometry x="1746" y="75" width="60" height="20" as="geometry" />
        </mxCell>
        <mxCell id="Pdm3WJ6kf0bDeH4MtH8x-8" value="About" style="text;html=1;points=[];align=left;verticalAlign=top;spacingTop=-4;fontSize=14;fontFamily=Verdana" parent="1" vertex="1">
          <mxGeometry x="1843" y="75" width="60" height="20" as="geometry" />
        </mxCell>
        <mxCell id="Pdm3WJ6kf0bDeH4MtH8x-9" value="" style="verticalLabelPosition=bottom;shadow=0;dashed=0;align=center;html=1;verticalAlign=top;strokeWidth=1;shape=mxgraph.mockup.graphics.simpleIcon;strokeColor=#999999;rounded=0;labelBackgroundColor=none;fontFamily=Verdana;fontSize=14;fontColor=#000000;comic=1;" parent="1" vertex="1">
          <mxGeometry x="1213" y="200" width="400" height="250" as="geometry" />
        </mxCell>
        <mxCell id="Pdm3WJ6kf0bDeH4MtH8x-10" value="" style="endArrow=none;html=1;rounded=0;exitX=-0.003;exitY=0.91;exitDx=0;exitDy=0;exitPerimeter=0;entryX=0.999;entryY=0.916;entryDx=0;entryDy=0;entryPerimeter=0;shadow=0;jumpStyle=none;" parent="1" edge="1">
          <mxGeometry width="50" height="50" relative="1" as="geometry">
            <mxPoint x="1150" y="757" as="sourcePoint" />
            <mxPoint x="2212" y="762" as="targetPoint" />
          </mxGeometry>
        </mxCell>
        <mxCell id="Pdm3WJ6kf0bDeH4MtH8x-11" value="" style="whiteSpace=wrap;html=1;rounded=0;shadow=0;labelBackgroundColor=none;strokeWidth=1;fillColor=none;fontFamily=Verdana;fontSize=12;align=center;comic=1;" parent="1" vertex="1">
          <mxGeometry x="1653" y="200" width="520" height="250" as="geometry" />
        </mxCell>
        <mxCell id="Pdm3WJ6kf0bDeH4MtH8x-13" value="Picture" style="text;html=1;strokeColor=none;fillColor=none;align=center;verticalAlign=middle;whiteSpace=wrap;rounded=0;" parent="1" vertex="1">
          <mxGeometry x="1383" y="210" width="60" height="30" as="geometry" />
        </mxCell>
        <mxCell id="Pdm3WJ6kf0bDeH4MtH8x-14" value="Information&lt;br&gt;Name&lt;br&gt;natural habitat&lt;br&gt;" style="text;html=1;strokeColor=none;fillColor=none;align=center;verticalAlign=middle;whiteSpace=wrap;rounded=0;" parent="1" vertex="1">
          <mxGeometry x="1693" y="240" width="210" height="180" as="geometry" />
        </mxCell>
        <mxCell id="Pdm3WJ6kf0bDeH4MtH8x-15" value="Special information about the animal" style="text;html=1;strokeColor=none;fillColor=none;align=center;verticalAlign=middle;whiteSpace=wrap;rounded=0;" parent="1" vertex="1">
          <mxGeometry x="1850" y="280" width="310" height="120" as="geometry" />
        </mxCell>
        <mxCell id="Pdm3WJ6kf0bDeH4MtH8x-16" value="Impressum, Datenschutz" style="text;html=1;strokeColor=none;fillColor=none;align=center;verticalAlign=middle;whiteSpace=wrap;rounded=0;" parent="1" vertex="1">
          <mxGeometry x="1173" y="770" width="210" height="30" as="geometry" />
        </mxCell>
        <mxCell id="Pdm3WJ6kf0bDeH4MtH8x-17" value="" style="whiteSpace=wrap;html=1;rounded=0;shadow=0;labelBackgroundColor=none;strokeColor=#000000;strokeWidth=1;fillColor=none;fontFamily=Verdana;fontSize=12;fontColor=#000000;align=center;comic=1;" parent="1" vertex="1">
          <mxGeometry x="2233" y="30" width="1060" height="810" as="geometry" />
        </mxCell>
        <mxCell id="Pdm3WJ6kf0bDeH4MtH8x-18" value="LOGO" style="whiteSpace=wrap;html=1;rounded=0;shadow=0;labelBackgroundColor=none;strokeWidth=1;fontFamily=Verdana;fontSize=28;align=center;comic=1;" parent="1" vertex="1">
          <mxGeometry x="2263" y="50" width="170" height="80" as="geometry" />
        </mxCell>
        <mxCell id="Pdm3WJ6kf0bDeH4MtH8x-19" value="" style="line;strokeWidth=1;html=1;rounded=0;shadow=0;labelBackgroundColor=none;fillColor=none;fontFamily=Verdana;fontSize=14;fontColor=#000000;align=center;comic=1;" parent="1" vertex="1">
          <mxGeometry x="2233" y="150" width="1060" height="10" as="geometry" />
        </mxCell>
        <mxCell id="Pdm3WJ6kf0bDeH4MtH8x-20" value="" style="whiteSpace=wrap;html=1;rounded=0;shadow=0;labelBackgroundColor=none;strokeWidth=1;fillColor=none;fontFamily=Verdana;fontSize=12;align=center;comic=1;" parent="1" vertex="1">
          <mxGeometry x="2533" y="70" width="480" height="50" as="geometry" />
        </mxCell>
        <mxCell id="Pdm3WJ6kf0bDeH4MtH8x-21" value="Home" style="text;html=1;points=[];align=left;verticalAlign=top;spacingTop=-4;fontSize=14;fontFamily=Verdana" parent="1" vertex="1">
          <mxGeometry x="2553" y="85" width="60" height="20" as="geometry" />
        </mxCell>
        <mxCell id="Pdm3WJ6kf0bDeH4MtH8x-22" value="Categories" style="text;html=1;points=[];align=left;verticalAlign=top;spacingTop=-4;fontSize=14;fontFamily=Verdana" parent="1" vertex="1">
          <mxGeometry x="2673" y="85" width="83" height="20" as="geometry" />
        </mxCell>
        <mxCell id="Pdm3WJ6kf0bDeH4MtH8x-23" value="Map" style="text;html=1;points=[];align=left;verticalAlign=top;spacingTop=-4;fontSize=14;fontFamily=Verdana" parent="1" vertex="1">
          <mxGeometry x="2826" y="85" width="60" height="20" as="geometry" />
        </mxCell>
        <mxCell id="Pdm3WJ6kf0bDeH4MtH8x-24" value="About" style="text;html=1;points=[];align=left;verticalAlign=top;spacingTop=-4;fontSize=14;fontFamily=Verdana" parent="1" vertex="1">
          <mxGeometry x="2923" y="85" width="60" height="20" as="geometry" />
        </mxCell>
        <mxCell id="Pdm3WJ6kf0bDeH4MtH8x-25" value="" style="verticalLabelPosition=bottom;shadow=0;dashed=0;align=center;html=1;verticalAlign=top;strokeWidth=1;shape=mxgraph.mockup.graphics.simpleIcon;strokeColor=#999999;rounded=0;labelBackgroundColor=none;fontFamily=Verdana;fontSize=14;fontColor=#000000;comic=1;" parent="1" vertex="1">
          <mxGeometry x="2293" y="210" width="410" height="160" as="geometry" />
        </mxCell>
        <mxCell id="Pdm3WJ6kf0bDeH4MtH8x-26" value="" style="endArrow=none;html=1;rounded=0;exitX=-0.003;exitY=0.91;exitDx=0;exitDy=0;exitPerimeter=0;entryX=0.999;entryY=0.916;entryDx=0;entryDy=0;entryPerimeter=0;shadow=0;jumpStyle=none;" parent="1" edge="1">
          <mxGeometry width="50" height="50" relative="1" as="geometry">
            <mxPoint x="2230" y="767" as="sourcePoint" />
            <mxPoint x="3292" y="772" as="targetPoint" />
          </mxGeometry>
        </mxCell>
        <mxCell id="Pdm3WJ6kf0bDeH4MtH8x-27" value="" style="verticalLabelPosition=bottom;shadow=0;dashed=0;align=center;html=1;verticalAlign=top;strokeWidth=1;shape=mxgraph.mockup.graphics.simpleIcon;strokeColor=#999999;rounded=0;labelBackgroundColor=none;fontFamily=Verdana;fontSize=14;fontColor=#000000;comic=1;" parent="1" vertex="1">
          <mxGeometry x="2843" y="410" width="410" height="160" as="geometry" />
        </mxCell>
        <mxCell id="Pdm3WJ6kf0bDeH4MtH8x-28" value="" style="verticalLabelPosition=bottom;shadow=0;dashed=0;align=center;html=1;verticalAlign=top;strokeWidth=1;shape=mxgraph.mockup.graphics.simpleIcon;strokeColor=#999999;rounded=0;labelBackgroundColor=none;fontFamily=Verdana;fontSize=14;fontColor=#000000;comic=1;" parent="1" vertex="1">
          <mxGeometry x="2293" y="590" width="410" height="160" as="geometry" />
        </mxCell>
        <mxCell id="Pdm3WJ6kf0bDeH4MtH8x-29" value="" style="whiteSpace=wrap;html=1;rounded=0;shadow=0;labelBackgroundColor=none;strokeWidth=1;fillColor=none;fontFamily=Verdana;fontSize=12;align=center;comic=1;" parent="1" vertex="1">
          <mxGeometry x="2733" y="210" width="520" height="160" as="geometry" />
        </mxCell>
        <mxCell id="Pdm3WJ6kf0bDeH4MtH8x-30" value="" style="whiteSpace=wrap;html=1;rounded=0;shadow=0;labelBackgroundColor=none;strokeWidth=1;fillColor=none;fontFamily=Verdana;fontSize=12;align=center;comic=1;" parent="1" vertex="1">
          <mxGeometry x="2293" y="410" width="520" height="160" as="geometry" />
        </mxCell>
        <mxCell id="Pdm3WJ6kf0bDeH4MtH8x-31" value="" style="whiteSpace=wrap;html=1;rounded=0;shadow=0;labelBackgroundColor=none;strokeWidth=1;fillColor=none;fontFamily=Verdana;fontSize=12;align=center;comic=1;" parent="1" vertex="1">
          <mxGeometry x="2733" y="600" width="520" height="160" as="geometry" />
        </mxCell>
        <mxCell id="Pdm3WJ6kf0bDeH4MtH8x-32" value="Informations about the animal category" style="text;html=1;strokeColor=none;fillColor=none;align=center;verticalAlign=middle;whiteSpace=wrap;rounded=0;" parent="1" vertex="1">
          <mxGeometry x="2743" y="250" width="250" height="30" as="geometry" />
        </mxCell>
        <mxCell id="Pdm3WJ6kf0bDeH4MtH8x-33" value="Picture&lt;br&gt;link to all animals in the category" style="text;html=1;strokeColor=none;fillColor=none;align=center;verticalAlign=middle;whiteSpace=wrap;rounded=0;" parent="1" vertex="1">
          <mxGeometry x="2405.5" y="220" width="195" height="30" as="geometry" />
        </mxCell>
        <mxCell id="Pdm3WJ6kf0bDeH4MtH8x-34" value="Picture&lt;br style=&quot;border-color: var(--border-color);&quot;&gt;link to all animals in the category" style="text;html=1;strokeColor=none;fillColor=none;align=center;verticalAlign=middle;whiteSpace=wrap;rounded=0;" parent="1" vertex="1">
          <mxGeometry x="2963" y="420" width="205" height="30" as="geometry" />
        </mxCell>
        <mxCell id="Pdm3WJ6kf0bDeH4MtH8x-35" value="Informations about the animal type" style="text;html=1;strokeColor=none;fillColor=none;align=center;verticalAlign=middle;whiteSpace=wrap;rounded=0;" parent="1" vertex="1">
          <mxGeometry x="2313" y="450" width="250" height="30" as="geometry" />
        </mxCell>
        <mxCell id="Pdm3WJ6kf0bDeH4MtH8x-36" value="Informations about the animal type" style="text;html=1;strokeColor=none;fillColor=none;align=center;verticalAlign=middle;whiteSpace=wrap;rounded=0;" parent="1" vertex="1">
          <mxGeometry x="2756" y="650" width="250" height="30" as="geometry" />
        </mxCell>
        <mxCell id="Pdm3WJ6kf0bDeH4MtH8x-37" value="Impressum, Datenschutz" style="text;html=1;strokeColor=none;fillColor=none;align=center;verticalAlign=middle;whiteSpace=wrap;rounded=0;" parent="1" vertex="1">
          <mxGeometry x="2253" y="780" width="220" height="30" as="geometry" />
        </mxCell>
        <mxCell id="Pdm3WJ6kf0bDeH4MtH8x-38" value="Picture&lt;br style=&quot;border-color: var(--border-color);&quot;&gt;link to all animals in the category" style="text;html=1;strokeColor=none;fillColor=none;align=center;verticalAlign=middle;whiteSpace=wrap;rounded=0;" parent="1" vertex="1">
          <mxGeometry x="2400.5" y="600" width="205" height="30" as="geometry" />
        </mxCell>
        <mxCell id="Pdm3WJ6kf0bDeH4MtH8x-39" value="Name and link" style="text;html=1;strokeColor=none;fillColor=none;align=center;verticalAlign=middle;whiteSpace=wrap;rounded=0;" parent="1" vertex="1">
          <mxGeometry x="2763" y="220" width="160" height="30" as="geometry" />
        </mxCell>
        <mxCell id="Pdm3WJ6kf0bDeH4MtH8x-40" value="Name and link" style="text;html=1;strokeColor=none;fillColor=none;align=center;verticalAlign=middle;whiteSpace=wrap;rounded=0;" parent="1" vertex="1">
          <mxGeometry x="2333" y="420" width="160" height="30" as="geometry" />
        </mxCell>
        <mxCell id="Pdm3WJ6kf0bDeH4MtH8x-41" value="Name and link" style="text;html=1;strokeColor=none;fillColor=none;align=center;verticalAlign=middle;whiteSpace=wrap;rounded=0;" parent="1" vertex="1">
          <mxGeometry x="2776" y="620" width="160" height="30" as="geometry" />
        </mxCell>
        <mxCell id="Pdm3WJ6kf0bDeH4MtH8x-42" value="" style="whiteSpace=wrap;html=1;rounded=0;shadow=0;labelBackgroundColor=none;strokeColor=#000000;strokeWidth=1;fillColor=none;fontFamily=Verdana;fontSize=12;fontColor=#000000;align=center;comic=1;" parent="1" vertex="1">
          <mxGeometry x="31.590000000000146" y="890" width="1060" height="810" as="geometry" />
        </mxCell>
        <mxCell id="Pdm3WJ6kf0bDeH4MtH8x-43" value="LOGO" style="whiteSpace=wrap;html=1;rounded=0;shadow=0;labelBackgroundColor=none;strokeWidth=1;fontFamily=Verdana;fontSize=28;align=center;comic=1;" parent="1" vertex="1">
          <mxGeometry x="61.590000000000146" y="910" width="170" height="80" as="geometry" />
        </mxCell>
        <mxCell id="Pdm3WJ6kf0bDeH4MtH8x-44" value="" style="line;strokeWidth=1;html=1;rounded=0;shadow=0;labelBackgroundColor=none;fillColor=none;fontFamily=Verdana;fontSize=14;fontColor=#000000;align=center;comic=1;" parent="1" vertex="1">
          <mxGeometry x="31.590000000000146" y="1010" width="1060" height="10" as="geometry" />
        </mxCell>
        <mxCell id="Pdm3WJ6kf0bDeH4MtH8x-45" value="" style="whiteSpace=wrap;html=1;rounded=0;shadow=0;labelBackgroundColor=none;strokeWidth=1;fillColor=none;fontFamily=Verdana;fontSize=12;align=center;comic=1;" parent="1" vertex="1">
          <mxGeometry x="331.59000000000015" y="930" width="480" height="50" as="geometry" />
        </mxCell>
        <mxCell id="Pdm3WJ6kf0bDeH4MtH8x-46" value="Home" style="text;html=1;points=[];align=left;verticalAlign=top;spacingTop=-4;fontSize=14;fontFamily=Verdana" parent="1" vertex="1">
          <mxGeometry x="351.59000000000015" y="945" width="60" height="20" as="geometry" />
        </mxCell>
        <mxCell id="Pdm3WJ6kf0bDeH4MtH8x-47" value="Map" style="text;html=1;points=[];align=left;verticalAlign=top;spacingTop=-4;fontSize=14;fontFamily=Verdana" parent="1" vertex="1">
          <mxGeometry x="624.5900000000001" y="945" width="60" height="20" as="geometry" />
        </mxCell>
        <mxCell id="Pdm3WJ6kf0bDeH4MtH8x-48" value="About" style="text;html=1;points=[];align=left;verticalAlign=top;spacingTop=-4;fontSize=14;fontFamily=Verdana" parent="1" vertex="1">
          <mxGeometry x="721.5900000000001" y="945" width="60" height="20" as="geometry" />
        </mxCell>
        <mxCell id="Pdm3WJ6kf0bDeH4MtH8x-49" value="" style="verticalLabelPosition=bottom;shadow=0;dashed=0;align=center;html=1;verticalAlign=top;strokeWidth=1;shape=mxgraph.mockup.graphics.simpleIcon;strokeColor=#999999;rounded=0;labelBackgroundColor=none;fontFamily=Verdana;fontSize=14;fontColor=#000000;comic=1;" parent="1" vertex="1">
          <mxGeometry x="31.590000000000146" y="1470" width="1060" height="120" as="geometry" />
        </mxCell>
        <mxCell id="Pdm3WJ6kf0bDeH4MtH8x-50" value="Categories" style="text;html=1;points=[];align=left;verticalAlign=top;spacingTop=-4;fontSize=14;fontFamily=Verdana" parent="1" vertex="1">
          <mxGeometry x="471.59000000000015" y="945" width="83" height="20" as="geometry" />
        </mxCell>
        <mxCell id="Pdm3WJ6kf0bDeH4MtH8x-51" value="" style="endArrow=none;html=1;rounded=0;exitX=-0.003;exitY=0.91;exitDx=0;exitDy=0;exitPerimeter=0;entryX=0.999;entryY=0.916;entryDx=0;entryDy=0;entryPerimeter=0;shadow=0;jumpStyle=none;" parent="1" source="Pdm3WJ6kf0bDeH4MtH8x-42" target="Pdm3WJ6kf0bDeH4MtH8x-42" edge="1">
          <mxGeometry width="50" height="50" relative="1" as="geometry">
            <mxPoint x="531.5900000000001" y="1470" as="sourcePoint" />
            <mxPoint x="581.5900000000001" y="1420" as="targetPoint" />
          </mxGeometry>
        </mxCell>
        <mxCell id="Pdm3WJ6kf0bDeH4MtH8x-52" value="" style="verticalLabelPosition=bottom;shadow=0;dashed=0;align=center;html=1;verticalAlign=top;strokeWidth=1;shape=mxgraph.mockup.graphics.simpleIcon;strokeColor=#999999;rounded=0;labelBackgroundColor=none;fontFamily=Verdana;fontSize=14;fontColor=#000000;comic=1;" parent="1" vertex="1">
          <mxGeometry x="31.590000000000146" y="1340" width="1060" height="121" as="geometry" />
        </mxCell>
        <mxCell id="Pdm3WJ6kf0bDeH4MtH8x-53" value="" style="verticalLabelPosition=bottom;shadow=0;dashed=0;align=center;html=1;verticalAlign=top;strokeWidth=1;shape=mxgraph.mockup.graphics.simpleIcon;strokeColor=#999999;rounded=0;labelBackgroundColor=none;fontFamily=Verdana;fontSize=14;fontColor=#000000;comic=1;" parent="1" vertex="1">
          <mxGeometry x="31.590000000000146" y="1200" width="1060" height="130" as="geometry" />
        </mxCell>
        <mxCell id="Pdm3WJ6kf0bDeH4MtH8x-54" value="" style="whiteSpace=wrap;html=1;rounded=0;shadow=0;labelBackgroundColor=none;strokeWidth=1;fillColor=none;fontFamily=Verdana;fontSize=12;align=center;comic=1;" parent="1" vertex="1">
          <mxGeometry x="301.59000000000015" y="1050" width="500" height="80" as="geometry" />
        </mxCell>
        <mxCell id="Pdm3WJ6kf0bDeH4MtH8x-55" value="Picture for animal Category&lt;br&gt;Link to category" style="text;html=1;strokeColor=none;fillColor=none;align=center;verticalAlign=middle;whiteSpace=wrap;rounded=0;" parent="1" vertex="1">
          <mxGeometry x="466.59000000000015" y="1210" width="170" height="30" as="geometry" />
        </mxCell>
        <mxCell id="Pdm3WJ6kf0bDeH4MtH8x-56" value="Picture for animal Category&lt;br style=&quot;border-color: var(--border-color);&quot;&gt;Link to category" style="text;html=1;strokeColor=none;fillColor=none;align=center;verticalAlign=middle;whiteSpace=wrap;rounded=0;" parent="1" vertex="1">
          <mxGeometry x="461.59000000000015" y="1350" width="170" height="30" as="geometry" />
        </mxCell>
        <mxCell id="Pdm3WJ6kf0bDeH4MtH8x-57" value="Picture for animal Category&lt;br style=&quot;border-color: var(--border-color);&quot;&gt;Link to category" style="text;html=1;strokeColor=none;fillColor=none;align=center;verticalAlign=middle;whiteSpace=wrap;rounded=0;" parent="1" vertex="1">
          <mxGeometry x="471.59000000000015" y="1480" width="170" height="30" as="geometry" />
        </mxCell>
        <mxCell id="Pdm3WJ6kf0bDeH4MtH8x-58" value="Impressum, Datenschutz" style="text;html=1;strokeColor=none;fillColor=none;align=center;verticalAlign=middle;whiteSpace=wrap;rounded=0;" parent="1" vertex="1">
          <mxGeometry x="41.590000000000146" y="1640" width="170" height="30" as="geometry" />
        </mxCell>
        <mxCell id="Pdm3WJ6kf0bDeH4MtH8x-59" value="Title" style="text;html=1;strokeColor=none;fillColor=none;align=center;verticalAlign=middle;whiteSpace=wrap;rounded=0;" parent="1" vertex="1">
          <mxGeometry x="331.59000000000015" y="1070" width="440" height="30" as="geometry" />
        </mxCell>
        <mxCell id="Pdm3WJ6kf0bDeH4MtH8x-60" value="" style="whiteSpace=wrap;html=1;rounded=0;shadow=0;labelBackgroundColor=none;strokeColor=#000000;strokeWidth=1;fillColor=none;fontFamily=Verdana;fontSize=12;fontColor=#000000;align=center;comic=1;" parent="1" vertex="1">
          <mxGeometry x="1140" y="890" width="1060" height="810" as="geometry" />
        </mxCell>
        <mxCell id="Pdm3WJ6kf0bDeH4MtH8x-61" value="LOGO" style="whiteSpace=wrap;html=1;rounded=0;shadow=0;labelBackgroundColor=none;strokeWidth=1;fontFamily=Verdana;fontSize=28;align=center;comic=1;" parent="1" vertex="1">
          <mxGeometry x="1170" y="910" width="170" height="80" as="geometry" />
        </mxCell>
        <mxCell id="Pdm3WJ6kf0bDeH4MtH8x-62" value="" style="line;strokeWidth=1;html=1;rounded=0;shadow=0;labelBackgroundColor=none;fillColor=none;fontFamily=Verdana;fontSize=14;fontColor=#000000;align=center;comic=1;" parent="1" vertex="1">
          <mxGeometry x="1140" y="1010" width="1060" height="10" as="geometry" />
        </mxCell>
        <mxCell id="Pdm3WJ6kf0bDeH4MtH8x-63" value="" style="whiteSpace=wrap;html=1;rounded=0;shadow=0;labelBackgroundColor=none;strokeWidth=1;fillColor=none;fontFamily=Verdana;fontSize=12;align=center;comic=1;" parent="1" vertex="1">
          <mxGeometry x="1440" y="930" width="480" height="50" as="geometry" />
        </mxCell>
        <mxCell id="Pdm3WJ6kf0bDeH4MtH8x-64" value="Home" style="text;html=1;points=[];align=left;verticalAlign=top;spacingTop=-4;fontSize=14;fontFamily=Verdana" parent="1" vertex="1">
          <mxGeometry x="1460" y="945" width="60" height="20" as="geometry" />
        </mxCell>
        <mxCell id="Pdm3WJ6kf0bDeH4MtH8x-65" value="Categories" style="text;html=1;points=[];align=left;verticalAlign=top;spacingTop=-4;fontSize=14;fontFamily=Verdana" parent="1" vertex="1">
          <mxGeometry x="1580" y="945" width="83" height="20" as="geometry" />
        </mxCell>
        <mxCell id="Pdm3WJ6kf0bDeH4MtH8x-66" value="Map" style="text;html=1;points=[];align=left;verticalAlign=top;spacingTop=-4;fontSize=14;fontFamily=Verdana" parent="1" vertex="1">
          <mxGeometry x="1733" y="945" width="60" height="20" as="geometry" />
        </mxCell>
        <mxCell id="Pdm3WJ6kf0bDeH4MtH8x-67" value="About" style="text;html=1;points=[];align=left;verticalAlign=top;spacingTop=-4;fontSize=14;fontFamily=Verdana" parent="1" vertex="1">
          <mxGeometry x="1830" y="945" width="60" height="20" as="geometry" />
        </mxCell>
        <mxCell id="Pdm3WJ6kf0bDeH4MtH8x-68" value="" style="verticalLabelPosition=bottom;shadow=0;dashed=0;align=center;html=1;verticalAlign=top;strokeWidth=1;shape=mxgraph.mockup.graphics.simpleIcon;strokeColor=#999999;rounded=0;labelBackgroundColor=none;fontFamily=Verdana;fontSize=14;fontColor=#000000;comic=1;" parent="1" vertex="1">
          <mxGeometry x="1200" y="1070" width="940" height="400" as="geometry" />
        </mxCell>
        <mxCell id="Pdm3WJ6kf0bDeH4MtH8x-69" value="" style="endArrow=none;html=1;rounded=0;exitX=-0.003;exitY=0.91;exitDx=0;exitDy=0;exitPerimeter=0;entryX=0.999;entryY=0.916;entryDx=0;entryDy=0;entryPerimeter=0;shadow=0;jumpStyle=none;" parent="1" edge="1">
          <mxGeometry width="50" height="50" relative="1" as="geometry">
            <mxPoint x="1137" y="1627" as="sourcePoint" />
            <mxPoint x="2199" y="1632" as="targetPoint" />
          </mxGeometry>
        </mxCell>
        <mxCell id="Pdm3WJ6kf0bDeH4MtH8x-70" value="" style="whiteSpace=wrap;html=1;rounded=0;shadow=0;labelBackgroundColor=none;strokeWidth=1;fillColor=none;fontFamily=Verdana;fontSize=12;align=center;comic=1;" parent="1" vertex="1">
          <mxGeometry x="1200" y="1500" width="940" height="100" as="geometry" />
        </mxCell>
        <mxCell id="Pdm3WJ6kf0bDeH4MtH8x-71" value="Impressum&lt;br&gt;Datenshutz" style="text;html=1;strokeColor=none;fillColor=none;align=center;verticalAlign=middle;whiteSpace=wrap;rounded=0;" parent="1" vertex="1">
          <mxGeometry x="1160" y="1640" width="90" height="50" as="geometry" />
        </mxCell>
        <mxCell id="Pdm3WJ6kf0bDeH4MtH8x-72" value="Map of the Zoo" style="text;html=1;strokeColor=none;fillColor=none;align=center;verticalAlign=middle;whiteSpace=wrap;rounded=0;" parent="1" vertex="1">
          <mxGeometry x="1550" y="1080" width="220" height="30" as="geometry" />
        </mxCell>
        <mxCell id="Pdm3WJ6kf0bDeH4MtH8x-73" value="Description, Infos" style="text;html=1;strokeColor=none;fillColor=none;align=center;verticalAlign=middle;whiteSpace=wrap;rounded=0;" parent="1" vertex="1">
          <mxGeometry x="1220" y="1520" width="130" height="30" as="geometry" />
        </mxCell>
        <mxCell id="Pdm3WJ6kf0bDeH4MtH8x-74" value="Home" style="text;html=1;strokeColor=none;fillColor=none;align=center;verticalAlign=middle;whiteSpace=wrap;rounded=0;" parent="1" vertex="1">
          <mxGeometry x="50" y="850" width="60" height="30" as="geometry" />
        </mxCell>
        <mxCell id="Pdm3WJ6kf0bDeH4MtH8x-75" value="About" style="text;html=1;strokeColor=none;fillColor=none;align=center;verticalAlign=middle;whiteSpace=wrap;rounded=0;" parent="1" vertex="1">
          <mxGeometry x="31.59" width="60" height="30" as="geometry" />
        </mxCell>
        <mxCell id="Pdm3WJ6kf0bDeH4MtH8x-77" value="Animals from category" style="text;html=1;strokeColor=none;fillColor=none;align=center;verticalAlign=middle;whiteSpace=wrap;rounded=0;" parent="1" vertex="1">
          <mxGeometry x="1173" width="167" height="30" as="geometry" />
        </mxCell>
        <mxCell id="Pdm3WJ6kf0bDeH4MtH8x-78" value="Categorys" style="text;html=1;strokeColor=none;fillColor=none;align=center;verticalAlign=middle;whiteSpace=wrap;rounded=0;" parent="1" vertex="1">
          <mxGeometry x="2233" width="160" height="30" as="geometry" />
        </mxCell>
        <mxCell id="Pdm3WJ6kf0bDeH4MtH8x-79" value="Map" style="text;html=1;strokeColor=none;fillColor=none;align=center;verticalAlign=middle;whiteSpace=wrap;rounded=0;" parent="1" vertex="1">
          <mxGeometry x="1123" y="850" width="60" height="30" as="geometry" />
        </mxCell>
        <mxCell id="Pdm3WJ6kf0bDeH4MtH8x-81" value="" style="verticalLabelPosition=bottom;shadow=0;dashed=0;align=center;html=1;verticalAlign=top;strokeWidth=1;shape=mxgraph.mockup.graphics.simpleIcon;strokeColor=#999999;rounded=0;labelBackgroundColor=none;fontFamily=Verdana;fontSize=14;fontColor=#000000;comic=1;" parent="1" vertex="1">
          <mxGeometry x="1770" y="490" width="400" height="250" as="geometry" />
        </mxCell>
        <mxCell id="Pdm3WJ6kf0bDeH4MtH8x-82" value="" style="whiteSpace=wrap;html=1;rounded=0;shadow=0;labelBackgroundColor=none;strokeWidth=1;fillColor=none;fontFamily=Verdana;fontSize=12;align=center;comic=1;" parent="1" vertex="1">
          <mxGeometry x="1200" y="490" width="520" height="250" as="geometry" />
        </mxCell>
        <mxCell id="Pdm3WJ6kf0bDeH4MtH8x-83" value="Information&lt;br&gt;Name&lt;br&gt;natural habitat&lt;br&gt;" style="text;html=1;strokeColor=none;fillColor=none;align=center;verticalAlign=middle;whiteSpace=wrap;rounded=0;" parent="1" vertex="1">
          <mxGeometry x="1240" y="530" width="210" height="180" as="geometry" />
        </mxCell>
        <mxCell id="Pdm3WJ6kf0bDeH4MtH8x-84" value="Special information about the animal" style="text;html=1;strokeColor=none;fillColor=none;align=center;verticalAlign=middle;whiteSpace=wrap;rounded=0;" parent="1" vertex="1">
          <mxGeometry x="1397" y="570" width="310" height="120" as="geometry" />
        </mxCell>
        <mxCell id="Pdm3WJ6kf0bDeH4MtH8x-85" value="Picture" style="text;html=1;strokeColor=none;fillColor=none;align=center;verticalAlign=middle;whiteSpace=wrap;rounded=0;" parent="1" vertex="1">
          <mxGeometry x="1950" y="510" width="60" height="30" as="geometry" />
        </mxCell>
        <mxCell id="Pdm3WJ6kf0bDeH4MtH8x-86" value="Impressum&lt;br&gt;Datenshutz" style="text;html=1;strokeColor=none;fillColor=none;align=center;verticalAlign=middle;whiteSpace=wrap;rounded=0;" parent="1" vertex="1">
          <mxGeometry x="50" y="770" width="90" height="50" as="geometry" />
        </mxCell>
      </root>
    </mxGraphModel>
  </diagram>
</mxfile>
